<?xml version="1.0" encoding="utf-8"?>
<!-- Generator: Adobe Illustrator 23.1.1, SVG Export Plug-In . SVG Version: 6.00 Build 0)  -->
<svg version="1.1" id="레이어_1" xmlns="http://www.w3.org/2000/svg" xmlns:xlink="http://www.w3.org/1999/xlink" x="0px"
	 y="0px" viewBox="0 0 96 96" style="enable-background:new 0 0 96 96;" xml:space="preserve">
<style type="text/css">
	.st0{fill:none;}
	.st1{fill:#fff;}
</style>
<g>
	<rect id="사각형_2608" class="st0" width="96" height="96"/>
	<path id="패스_2016" class="st1" d="M73.2,22.8c-1.5-1.5-3.9-1.6-5.5-0.1l-0.1,0.1L48,42.4L28.4,22.8c-1.6-1.5-4.1-1.5-5.6,0.1
		c-1.5,1.5-1.5,4,0,5.5L42.4,48L22.8,67.6c-1.5,1.6-1.5,4.1,0.1,5.6c1.5,1.5,4,1.5,5.5,0L48,53.6l19.6,19.6c1.5,1.6,4,1.6,5.6,0.1
		s1.6-4,0.1-5.6l-0.1-0.1L53.6,48l19.6-19.6c1.5-1.5,1.6-3.9,0.1-5.5L73.2,22.8z"/>
</g>
</svg>
