<?xml version="1.0" encoding="utf-8"?>
<!-- Generator: Adobe Illustrator 23.1.1, SVG Export Plug-In . SVG Version: 6.00 Build 0)  -->
<svg version="1.1" id="레이어_1" xmlns="http://www.w3.org/2000/svg" xmlns:xlink="http://www.w3.org/1999/xlink" x="0px"
	 y="0px" viewBox="0 0 96 96" style="enable-background:new 0 0 96 96;" xml:space="preserve">
<style type="text/css">
	.st0{fill:none;}
	.st1{fill:#3F3A3B;}
</style>
<g id="그룹_3910" transform="translate(349 -221)">
	<rect id="사각형_3619" x="-349" y="221" class="st0" width="96" height="96"/>
	<g id="그룹_3865" transform="translate(1 6)">
		<path id="패스_2904" class="st1" d="M-273,281.7h-3.3v-39.5c0-6.1-4.9-11.1-11-11.1H-331c-4,0.1-7.1,3.4-7,7.3v6.9
			c0,1.7,1.3,3.1,3,3.1h5.6v39.5c0,4.9,3.2,9.2,7.9,10.6c0.5,0.3,1,0.5,1.5,0.5h43.4c3.8-0.2,6.7-3.5,6.5-7.3v-6.9
			C-270,283.1-271.3,281.7-273,281.7z M-332,242.1v-3.8c0-0.6,0.4-1,1-1h1.6v4.8L-332,242.1z M-323.4,245.2v-7.9h36.1
			c2.7,0,5,2.1,5,4.9v39.5h-34.1c-1.7,0-3,1.4-3,3.1v6.9c0,0.3-0.1,0.6-0.2,0.8c-2.1-0.5-3.7-2.4-3.7-4.6V245.2z M-276,291.7
			c0,0.7-0.4,1-0.5,1h-37c0-0.3,0.1-0.7,0.1-1v-3.8h37.4L-276,291.7z"/>
		<path id="패스_2905" class="st1" d="M-313.5,257.7h21.5c1.6-0.1,2.9-1.5,2.8-3.1c-0.1-1.5-1.3-2.7-2.8-2.8h-21.5
			c-1.6,0.1-2.9,1.5-2.8,3.1C-316.2,256.5-315,257.7-313.5,257.7z"/>
		<path id="패스_2906" class="st1" d="M-313.5,270.4h21.5c1.6-0.1,2.9-1.4,2.8-3.1c-0.1-1.5-1.3-2.8-2.8-2.8h-21.5
			c-1.6,0.1-2.9,1.4-2.8,3.1C-316.3,269.1-315.1,270.3-313.5,270.4z"/>
	</g>
</g>
</svg>
