<?xml version="1.0" encoding="utf-8"?>
<!-- Generator: Adobe Illustrator 23.1.1, SVG Export Plug-In . SVG Version: 6.00 Build 0)  -->
<svg version="1.1" id="레이어_1" xmlns="http://www.w3.org/2000/svg" xmlns:xlink="http://www.w3.org/1999/xlink" x="0px"
	 y="0px" viewBox="0 0 96 96" style="enable-background:new 0 0 96 96;" xml:space="preserve">
<style type="text/css">
	.st0{fill:none;}
	.st1{fill:#3F3A3B;}
	.st2{fill-rule:evenodd;clip-rule:evenodd;fill:#3F3A3B;}
</style>
<g>
	<rect id="Box" class="st0" width="96" height="96"/>
	<g id="그룹_3817" transform="translate(8.438 5.833)">
		<circle id="타원_1_1_" class="st1" cx="38.4" cy="26" r="3.8"/>
		<path id="패스_2045_1_" class="st2" d="M42.1,57.2V34h-10v5h5v18.2h-5v5h15v-5H42.1z"/>
	</g>
	<path id="빼기_3" class="st1" d="M48,88C25.9,88,8,70.1,8,48S25.9,8,48,8s40,17.9,40,40C88,70.1,70.1,88,48,88C48,88,48,88,48,88
		z M48,16c-17.7,0-32,14.3-32,32s14.3,32,32,32s32-14.3,32-32c0,0,0,0,0,0C80,30.3,65.7,16,48,16C48,16,48,16,48,16z"/>
</g>
</svg>
