<svg xmlns="http://www.w3.org/2000/svg" viewBox="0 0 114.04 115.58"><title>Asset 32</title><g id="Layer_2" data-name="Layer 2"><g id="Layer_20" data-name="Layer 20"><path d="M0,9.15c.18-.65.33-1.31.54-2A10.16,10.16,0,0,1,10,0c18.34,0,36.68-.07,55,0,7.6,0,12.36,8.45,8.84,15.35l-.56,1.06h1.3c5.53,0,11.06,0,16.59,0a10.19,10.19,0,0,1,9.53,7A10.59,10.59,0,0,1,97.69,35a9.74,9.74,0,0,1-6.33,2.44c-1.93,0-3.86,0-5.89,0a3.18,3.18,0,0,0,2,2.3C102.2,45,111.21,55.42,113.59,71.18c3.09,20.46-10.18,39.66-29.93,43.59-13.12,2.61-24.59-1.11-34.22-10.62a2.87,2.87,0,0,0-2.23-.93c-8.32,0-16.63,0-24.95,0a10.35,10.35,0,0,1-10.2-11.13,10.52,10.52,0,0,1,3.82-7.56A10.78,10.78,0,0,1,12,76.34a10.59,10.59,0,0,1,3.84-8.25A10.74,10.74,0,0,1,12,59.91a10.86,10.86,0,0,1,4-8.46,4.12,4.12,0,0,1-.91-.53,10.61,10.61,0,0,1-2.43-11.34A10.26,10.26,0,0,1,22,32.92c1.93,0,3.86,0,6,0A12.16,12.16,0,0,1,26.29,27a11.28,11.28,0,0,1,1.74-6c-.51,0-.89,0-1.28,0-5.23,0-10.47,0-15.7,0C5.25,21,1.6,18.1.16,12.3A2.31,2.31,0,0,0,0,11.89ZM76.18,42.49c-18.42,0-33.42,15.41-33.4,34.3S57.77,111,76.15,111s33.46-15.35,33.47-34.24S94.61,42.49,76.18,42.49Zm-38.7-26q13.59,0,27.18,0a5.87,5.87,0,0,0,6-6.24A5.88,5.88,0,0,0,64.5,4.59H22.18c-4,0-7.95,0-11.92,0A5.8,5.8,0,0,0,4.69,8.86a5.9,5.9,0,0,0,5.73,7.59Q24,16.48,37.48,16.46ZM63.88,21q-13.53,0-27.07,0A5.83,5.83,0,0,0,31,25.26a5.89,5.89,0,0,0,5.67,7.63c7.35,0,14.71,0,22.06,0q16,0,32,0a6.07,6.07,0,0,0,4.22-1.46,6,6,0,0,0,1.65-6.53A5.76,5.76,0,0,0,91.05,21Q77.47,21,63.88,21ZM78.55,38.11l0-.45c-.79-.07-1.58-.18-2.38-.18H32.53c-3.42,0-6.83,0-10.25,0a5.79,5.79,0,0,0-5.56,4.27,5.9,5.9,0,0,0,5.74,7.59c8.58,0,17.15,0,25.73,0a2.68,2.68,0,0,0,2.05-.82,36.47,36.47,0,0,1,22.6-10.41C74.73,38,76.65,38.11,78.55,38.11ZM39.46,65.78l5.72-11.9c.14.1.11.06.08.06-7.79,0-15.58-.07-23.36,0a5.92,5.92,0,0,0,0,11.8C27.86,65.84,33.8,65.78,39.46,65.78Zm-.23,21c-5.6,0-11.47-.07-17.33,0a5.33,5.33,0,0,0-5,3.64,5.88,5.88,0,0,0,5.44,8.18c7.2,0,14.4,0,21.61,0l.55,0Zm-.68-4.58V70.39c-.15,0-.47,0-.8,0-5.08,0-10.16,0-15.25,0a5.94,5.94,0,1,0,.05,11.87h16Z"/><path d="M78.49,91.9c-.21,2.3-.88,3.23-2.28,3.25s-2.15-1-2.3-3.19c-.68-.28-1.42-.51-2.1-.87a8.69,8.69,0,0,1-5-7.45A2.28,2.28,0,0,1,69,81c1.27-.06,2.19.88,2.33,2.38a4.54,4.54,0,0,0,4,4.16,5,5,0,0,0,5.5-2.91A4.28,4.28,0,0,0,77.37,79c-1.12-.22-2.29-.2-3.41-.45a9,9,0,0,1-7.11-8,8.87,8.87,0,0,1,6.22-9c.67-.23.93-.49.92-1.24a2.27,2.27,0,0,1,2.17-2.51,2.3,2.3,0,0,1,2.24,2.57c0,.69.22.94.86,1.17a8.84,8.84,0,0,1,6.19,7.22,5.84,5.84,0,0,1,.08,1.25,2.21,2.21,0,0,1-2.16,2.17,2.07,2.07,0,0,1-2.23-2c.07-3-3.17-5.34-6.56-4.31a4.41,4.41,0,0,0-3.28,4.46,4.64,4.64,0,0,0,4.17,3.94,21.78,21.78,0,0,1,3.62.52,8.77,8.77,0,0,1,.3,16.82Z"/><path d="M105.17,76a31.4,31.4,0,0,1-3.32,14.55,2.15,2.15,0,0,1-2.57,1.3,2.06,2.06,0,0,1-1.65-2,4.65,4.65,0,0,1,.51-1.83,25.2,25.2,0,0,0,.58-21A24.37,24.37,0,0,0,87.61,54.53c-.26-.14-.53-.27-.78-.42a2.3,2.3,0,0,1-1-3.1,2.07,2.07,0,0,1,3-.94,42.57,42.57,0,0,1,6,4A29.13,29.13,0,0,1,105.17,76Z"/><path d="M52.63,61.64c1.67,0,2.56,1.67,1.91,3.37a48.23,48.23,0,0,0-2.24,6.41,25.3,25.3,0,0,0,12,27.3l1.08.59a2.35,2.35,0,0,1,1.15,3.24,2.22,2.22,0,0,1-3.19.82,28.41,28.41,0,0,1-7.88-5.86,30.16,30.16,0,0,1-5.14-34.17C51,62.09,51.6,61.62,52.63,61.64Z"/><path d="M79.64,47.06a2.28,2.28,0,1,1-2.32,2.25A2.29,2.29,0,0,1,79.64,47.06Z"/><path d="M72.8,101.87a2.28,2.28,0,1,1-2.3,2.27A2.27,2.27,0,0,1,72.8,101.87Z"/></g></g></svg>