<svg xmlns="http://www.w3.org/2000/svg" viewBox="0 0 103.3 116.33"><title>Asset 34</title><g id="Layer_2" data-name="Layer 2"><g id="Layer_21" data-name="Layer 21"><path d="M102.77,116H97.85c0-4.53,0-8.95,0-13.37,0-5.59,0-11.12-1.87-16.49C91.93,74.53,81.64,66.67,70.15,66.63c-12.14,0-24.28-.08-36.42.05C22.63,66.8,14.4,72.26,9,82.6A28.83,28.83,0,0,0,5.86,96c-.05,6.58,0,13.16,0,19.92H.38c0-.28,0-.61,0-1,.07-7.16,0-14.32.32-21.46.79-15.61,12.73-29.57,27.13-31.92a55,55,0,0,1,9-.75c11.94,0,23.88-.05,35.81.34,15.08.49,29.09,14.89,30.09,31C103.17,100,102.77,107.88,102.77,116Z" stroke="#fff" stroke-miterlimit="10" stroke-width="0.75"/><path d="M51.85.38c14.29.06,25.74,12.41,25.63,27.8C77.37,44.3,64.72,56,50.84,55.56c-13.56-.44-24.72-12.74-24.67-27.93S37.71.31,51.85.38Zm-.2,49.69c11.17.09,20.41-9.58,20.75-21.16.36-12-8-23.11-20.56-23.13-11.86,0-20.46,9.8-20.68,22S40.2,50,51.65,50.07Z" stroke="#fff" stroke-miterlimit="10" stroke-width="0.75"/></g></g></svg>