<?xml version="1.0" encoding="utf-8"?>
<!-- Generator: Adobe Illustrator 23.1.1, SVG Export Plug-In . SVG Version: 6.00 Build 0)  -->
<svg version="1.1" id="레이어_1" xmlns="http://www.w3.org/2000/svg" xmlns:xlink="http://www.w3.org/1999/xlink" x="0px"
	 y="0px" viewBox="0 0 96 96" style="enable-background:new 0 0 96 96;" xml:space="preserve">
<style type="text/css">
	.st0{fill:none;}
	.st1{fill:#3F3A3B;}
</style>
<g id="Icon_-_tdn" transform="translate(1039 -1056)">
	<rect id="사각형_402" x="-1039" y="1056" class="st0" width="96" height="96"/>
	<path id="패스_2046" class="st1" d="M-976.3,1090.1c-0.4-3.2-2.4-6-5.3-7.3c-1.6-0.7-3.3-1.1-5-1.1c-0.2,0-0.4,0.1-0.5-0.1
		c-0.3-0.6-0.1-1.3,0.5-1.6c0.2-0.1,0.4-0.2,0.6-0.2h7.7c1.1,0,1.5-0.4,1.5-1.4c0-1.6,0-3.2,0-4.9c0-1-0.5-1.4-1.5-1.4h-26.4
		c-1.1,0-1.5,0.4-1.5,1.5c0,1.5,0,3.1,0,4.6c0,1.1,0.4,1.5,1.6,1.5h7.3c1.4,0,1.4,0.1,1.4,1.5c0,0,0,0,0,0.1c0,0.3-0.1,0.4-0.4,0.4
		c-0.6,0-1.2,0.1-1.7,0.2c-3.6,0.3-6.7,2.7-8,6.1c-0.6,1.8-0.9,3.6-0.9,5.5c0,7.2,0,14.3,0,21.5c0,1,0.1,2.1,0.2,3.1
		c0.4,3.7,3,6.8,6.5,8c1.8,0.6,3.8,0.8,5.7,0.7c0.6-0.1,1.2,0.2,1.4,0.8c1.3,2.3,2.6,4.6,4,6.9c0.5,0.9,1.4,1.5,2.4,1.6
		c0.1,0,0.3,0,0.4,0c1.7,0,3.4,0,5,0c1.2,0,1.7-0.9,1.1-2c-0.2-0.3-0.3-0.6-0.5-0.9l-3.9-6.7l0.6-0.1c2.5-0.5,4.7-2,6.1-4.2
		c1.2-1.9,1.8-4.2,1.7-6.5c0-7.5,0-15.1,0-22.6C-976,1092-976.1,1091.1-976.3,1090.1z M-985,1116.1c-0.1,1.5-1.3,2.6-2.7,2.7
		c-2.4,0.2-4.9,0.2-7.3,0c-1.6,0-2.9-1.2-3-2.8c0-0.1,0-0.2,0-0.3c0-0.6-0.1-1.2-0.1-1.9c0-6.6,0-13.3,0-19.9c0-0.9,0.1-1.7,0.3-2.5
		c0.2-0.6,0.6-1.2,1.2-1.5c0.5-0.3,0.6-0.3,0.6,0.3c0,3.2,0,6.4,0,9.6c0,1,0,2,0,3c0,1.1,0.4,1.6,1.6,1.6c1.9,0,3.8,0,5.7,0
		c1.2,0,1.6-0.4,1.6-1.6c0-4.1,0-8.3,0-12.4v-0.6c1.2,0.3,2,1.3,2.1,2.5c0.1,0.5,0.1,0.9,0.1,1.4c0,7.1,0,14.2,0,21.2
		C-984.9,1115.2-984.9,1115.7-985,1116.1L-985,1116.1z"/>
</g>
</svg>
