<svg xmlns="http://www.w3.org/2000/svg" viewBox="0 0 127.17 119.11"><title>Asset 29</title><g id="Layer_2" data-name="Layer 2"><g id="Layer_18" data-name="Layer 18"><path d="M.75,49a20.12,20.12,0,0,1,2.34-2.52Q32,24.2,61,2C63.11.34,64.09.34,66.23,2q29.14,22.38,58.26,44.79A15.46,15.46,0,0,1,126.42,49v1.81c-1.51,3-3.32,3.37-5.94,1.36q-27.95-21.49-55.89-43a1.35,1.35,0,0,0-2,0q-27.93,21.53-55.9,43c-2.62,2-4.45,1.59-5.95-1.36Z" stroke="#fff" stroke-miterlimit="10" stroke-width="1.5"/><path d="M106,111.41v-1.58q0-26.14,0-52.3c0-2.55,1.37-4.09,3.49-4a3.17,3.17,0,0,1,2.91,2.66,9.32,9.32,0,0,1,.12,1.67q0,28,0,56c0,3.27-1.1,4.42-4.2,4.42H77.45c-2.93,0-4.06-1.2-4.06-4.3,0-10.69,0-21.38,0-32.07,0-5.78-4.09-10.31-9.39-10.53-5.61-.24-10.19,4.39-10.21,10.43,0,10.82,0,21.64,0,32.46a5,5,0,0,1-.94,2.9,3.58,3.58,0,0,1-2.49,1.06c-10.75.07-21.51,0-32.27,0-2,0-3.26-1.28-3.42-3.4,0-.43,0-.86,0-1.29V58.27a13.48,13.48,0,0,1,.08-1.8A3.19,3.19,0,0,1,18,53.58a3.27,3.27,0,0,1,3.08,3.08c0,.47,0,.94,0,1.42v53.4c.5,0,.9.06,1.3.06,7.81,0,15.62,0,23.43,0,1.16,0,1.42-.36,1.42-1.52q-.06-13.85,0-27.69c0-8.48,4.85-15.21,12.33-17.24,9.71-2.62,19.62,4.73,20.19,15.21.3,5.43.12,10.9.13,16.35,0,4.55,0,9.1,0,13.65,0,.7,0,1.23.93,1.23,8.23,0,16.45,0,24.67,0A3.22,3.22,0,0,0,106,111.41Z" stroke="#fff" stroke-miterlimit="10" stroke-width="1.5"/></g></g></svg>