<svg xmlns="http://www.w3.org/2000/svg" viewBox="0 0 93.27 115.58"><title>Asset 31</title><g id="Layer_2" data-name="Layer 2"><g id="Layer_19" data-name="Layer 19"><path d="M0,57.8V2.72C0,.75.74,0,2.71,0H90.54c2,0,2.73.73,2.73,2.8V112.86c0,2.07-.63,2.72-2.65,2.72H2.69c-2,0-2.69-.66-2.69-2.69Zm89,53.42V4.44H4.32V111.22Z"/><path d="M46.68,49.36H82c1.85,0,2.31.47,2.31,2.36V68.93c0,1.89-.44,2.33-2.34,2.33H11.31c-1.93,0-2.37-.45-2.37-2.42q0-8.6,0-17.2c0-1.79.49-2.28,2.28-2.28Zm34.21,3.58H12.41V67.69H80.89Z"/><path d="M30.19,11.08H49c1.78,0,2.33.55,2.33,2.39q0,14.34,0,28.68c0,1.77-.6,2.36-2.39,2.36q-18.84,0-37.69,0c-1.79,0-2.34-.57-2.35-2.37V13.47c0-1.92.47-2.39,2.41-2.39ZM12.41,14.69v26.2H47.85V14.69Z"/><path d="M63.2,104.54H44.26c-1.73,0-2.29-.57-2.29-2.32V78.52c0-1.67.61-2.31,2.23-2.31H82.09c1.68,0,2.24.57,2.24,2.25v23.91c0,1.64-.53,2.17-2.18,2.17Zm17.66-3.49V79.76c-.24,0-.41-.05-.58-.05q-17,0-33.95,0c-.8,0-.93.32-.93,1,0,6.49,0,13,0,19.48,0,.28,0,.55.08.86Z"/><path d="M55.59,27.75c0-4.84,0-9.67,0-14.5,0-1.58.55-2.16,2.08-2.17H82.26c1.5,0,2.07.58,2.07,2.07V42.36c0,1.49-.58,2.14-2,2.15q-12.35,0-24.69,0c-1.44,0-2-.68-2-2.16C55.58,37.48,55.59,32.61,55.59,27.75Zm25.29-13H59.07V40.89H80.88Z"/><path d="M23.25,104.54H11.11C9.47,104.54,9,104,9,102.36q0-12,0-23.91c0-1.68.55-2.24,2.25-2.24H35.46c1.75,0,2.29.55,2.29,2.32v23.69c0,1.8-.51,2.32-2.27,2.32ZM12.42,79.76V101h21.8V79.76Z"/></g></g></svg>