<?xml version="1.0" encoding="utf-8"?>
<!-- Generator: Adobe Illustrator 23.1.1, SVG Export Plug-In . SVG Version: 6.00 Build 0)  -->
<svg version="1.1" id="레이어_1" xmlns="http://www.w3.org/2000/svg" xmlns:xlink="http://www.w3.org/1999/xlink" x="0px"
	 y="0px" viewBox="0 0 96 96" style="enable-background:new 0 0 96 96;" xml:space="preserve">
<style type="text/css">
	.st0{fill:none;}
	.st1{fill:#3F3A3B;}
</style>
<g id="그룹_4317">
	<g id="사각형_3918">
		<rect class="st0" width="96" height="96"/>
	</g>
	<g>
		<path class="st1" d="M61.9,19.4C61.9,19.4,61.9,19.4,61.9,19.4c-0.5-0.1-1,0-1.4,0.2L26,33.3H14.8c-1.9,0-3.4,1.5-3.4,3.4v19
			c0,1.9,1.5,3.4,3.4,3.4h8.5l0,8.5c-0.6,5.1,3,9.8,8.1,10.5c0.4,0,0.8,0.1,1.2,0.1c4.6,0,8.7-3.5,9.3-8.2c0.1-0.8,0.1-1.6,0-2.3
			v-2.3l18.7,7.4c0.4,0.1,0.8,0.2,1.2,0.2c1.9,0,3.4-1.5,3.4-3.4V22.8C65.2,20.9,63.7,19.4,61.9,19.4z M35.2,62.6l-0.1,5v0
			c0,2-1.2,3.7-2.5,3.7s-2.5-1.7-2.5-3.7v-7L35.2,62.6z M58.3,27.7v36.9L31,53.9l-1.1-0.5V38.9L58.3,27.7z M23.2,40v12.3h-5.1V40
			H23.2z"/>
		<path class="st1" d="M83.7,44.2c-0.6-0.6-1.4-1-2.3-1h-5.9c-1.9,0-3.4,1.5-3.4,3.4c0,0.9,0.3,1.7,0.9,2.4c0.6,0.6,1.4,1,2.5,1h5.8
			c1.9,0,3.4-1.5,3.4-3.4C84.6,45.7,84.3,44.9,83.7,44.2z M81.2,43.8L81.2,43.8L81.2,43.8L81.2,43.8z"/>
		<path class="st1" d="M70.7,39.4c0.1,0,0.2,0,0.3,0c0.9,0,1.7-0.4,2.4-1l4.1-4.1c1.3-1.3,1.3-3.4-0.1-4.8c-1.3-1.2-3.4-1.2-4.7,0
			l-4.1,4.1c-0.6,0.6-1,1.4-1,2.3c0,0.9,0.3,1.7,1,2.4C69,39.1,69.8,39.4,70.7,39.4z"/>
		<path class="st1" d="M73.6,54.9c-1.2-1.4-3.4-1.5-4.7-0.2c-1.4,1.2-1.5,3.4-0.2,4.8l4.3,4.3c0.6,0.6,1.4,0.9,2.3,0.9c0,0,0,0,0,0
			c0.9,0,1.7-0.4,2.4-1.1c1.2-1.3,1.2-3.3,0-4.6L73.6,54.9z"/>
	</g>
</g>
</svg>
